<svg width="25" height="24" viewBox="0 0 25 24" fill="none" xmlns="http://www.w3.org/2000/svg">
<path d="M4.03589 13H10.0359C10.3011 13 10.5555 12.8946 10.743 12.7071C10.9305 12.5196 11.0359 12.2652 11.0359 12V4C11.0359 3.73478 10.9305 3.48043 10.743 3.29289C10.5555 3.10536 10.3011 3 10.0359 3H4.03589C3.77067 3 3.51632 3.10536 3.32878 3.29289C3.14125 3.48043 3.03589 3.73478 3.03589 4V12C3.03589 12.2652 3.14125 12.5196 3.32878 12.7071C3.51632 12.8946 3.77067 13 4.03589 13ZM3.03589 20C3.03589 20.2652 3.14125 20.5196 3.32878 20.7071C3.51632 20.8946 3.77067 21 4.03589 21H10.0359C10.3011 21 10.5555 20.8946 10.743 20.7071C10.9305 20.5196 11.0359 20.2652 11.0359 20V16C11.0359 15.7348 10.9305 15.4804 10.743 15.2929C10.5555 15.1054 10.3011 15 10.0359 15H4.03589C3.77067 15 3.51632 15.1054 3.32878 15.2929C3.14125 15.4804 3.03589 15.7348 3.03589 16V20ZM13.0359 20C13.0359 20.2652 13.1412 20.5196 13.3288 20.7071C13.5163 20.8946 13.7707 21 14.0359 21H20.0359C20.3011 21 20.5555 20.8946 20.743 20.7071C20.9305 20.5196 21.0359 20.2652 21.0359 20V13C21.0359 12.7348 20.9305 12.4804 20.743 12.2929C20.5555 12.1054 20.3011 12 20.0359 12H14.0359C13.7707 12 13.5163 12.1054 13.3288 12.2929C13.1412 12.4804 13.0359 12.7348 13.0359 13V20ZM14.0359 10H20.0359C20.3011 10 20.5555 9.89464 20.743 9.70711C20.9305 9.51957 21.0359 9.26522 21.0359 9V4C21.0359 3.73478 20.9305 3.48043 20.743 3.29289C20.5555 3.10536 20.3011 3 20.0359 3H14.0359C13.7707 3 13.5163 3.10536 13.3288 3.29289C13.1412 3.48043 13.0359 3.73478 13.0359 4V9C13.0359 9.26522 13.1412 9.51957 13.3288 9.70711C13.5163 9.89464 13.7707 10 14.0359 10Z" fill="#8D8D8D"/>
</svg>
