<svg width="38" height="39" viewBox="0 0 38 39" fill="none" xmlns="http://www.w3.org/2000/svg">
<g clip-path="url(#clip0_400_442)">
<path d="M38 19.6861C38 9.20758 29.488 0.705078 19 0.705078C8.512 0.705078 0 9.20758 0 19.6861C0 25.4573 2.622 30.6586 6.726 34.1498C6.764 34.1878 6.802 34.1878 6.802 34.2258C7.144 34.4918 7.486 34.7578 7.866 35.0238C8.056 35.1378 8.208 35.2875 8.398 35.4395C11.5379 37.5683 15.2444 38.7059 19.038 38.7051C22.8316 38.7059 26.5381 37.5683 29.678 35.4395C29.868 35.3255 30.02 35.1758 30.21 35.0595C30.552 34.7958 30.932 34.5298 31.274 34.2638C31.312 34.2258 31.35 34.2258 31.35 34.1878C35.378 30.6562 38 25.4573 38 19.6861ZM19 36.3135C15.428 36.3135 12.16 35.1735 9.462 33.2758C9.5 32.9718 9.576 32.6702 9.652 32.3662C9.87843 31.5423 10.2105 30.7512 10.64 30.0126C11.058 29.2906 11.552 28.6446 12.16 28.0746C12.73 27.5046 13.414 26.975 14.098 26.557C14.82 26.139 15.58 25.835 16.416 25.607C17.2585 25.3799 18.1274 25.2657 19 25.2673C21.5903 25.249 24.0854 26.2426 25.954 28.0366C26.828 28.9106 27.512 29.9366 28.006 31.1122C28.272 31.7962 28.462 32.5182 28.576 33.2758C25.7715 35.2475 22.4282 36.308 19 36.3135ZM13.186 18.7385C12.8512 17.9718 12.6828 17.1429 12.692 16.3065C12.692 15.4728 12.844 14.6368 13.186 13.8768C13.528 13.1168 13.984 12.4352 14.554 11.8652C15.124 11.2952 15.808 10.8416 16.568 10.4996C17.328 10.1576 18.164 10.0056 19 10.0056C19.874 10.0056 20.672 10.1576 21.432 10.4996C22.192 10.8416 22.876 11.2976 23.446 11.8652C24.016 12.4352 24.472 13.1192 24.814 13.8768C25.156 14.6368 25.308 15.4728 25.308 16.3065C25.308 17.1805 25.156 17.9785 24.814 18.7361C24.4839 19.4848 24.0204 20.1673 23.446 20.7501C22.863 21.3236 22.1806 21.7864 21.432 22.1157C19.8617 22.761 18.1003 22.761 16.53 22.1157C15.7814 21.7864 15.099 21.3236 14.516 20.7501C13.9408 20.1758 13.4883 19.493 13.186 18.7385ZM30.818 31.3402C30.818 31.2642 30.78 31.2262 30.78 31.1502C30.4063 29.9613 29.8554 28.8356 29.146 27.811C28.4359 26.7787 27.5633 25.8684 26.562 25.1153C25.7973 24.5401 24.9684 24.0555 24.092 23.6713C24.4907 23.4083 24.8602 23.1033 25.194 22.7617C25.7605 22.2024 26.2581 21.5773 26.676 20.8997C27.5176 19.517 27.9522 17.925 27.93 16.3065C27.9418 15.1083 27.709 13.9203 27.246 12.8152C26.7889 11.7503 26.1309 10.7835 25.308 9.96758C24.4863 9.16015 23.5193 8.51548 22.458 8.06758C21.351 7.60539 20.1615 7.37347 18.962 7.38595C17.7623 7.37422 16.5728 7.60695 15.466 8.06995C14.3955 8.5169 13.4261 9.17524 12.616 10.0056C11.8086 10.8263 11.1639 11.7926 10.716 12.8532C10.253 13.9583 10.0202 15.1463 10.032 16.3445C10.032 17.1805 10.146 17.9785 10.374 18.7361C10.602 19.5341 10.906 20.2561 11.324 20.9377C11.704 21.6217 12.236 22.2297 12.806 22.7997C13.148 23.1417 13.528 23.4433 13.946 23.7093C13.0669 24.1037 12.2377 24.6012 11.476 25.1913C10.488 25.9513 9.614 26.861 8.892 27.849C8.17536 28.8693 7.62394 29.9962 7.258 31.1882C7.22 31.2642 7.22 31.3402 7.22 31.3782C4.218 28.3406 2.356 24.2413 2.356 19.6861C2.356 10.5376 9.842 3.0587 19 3.0587C28.158 3.0587 35.644 10.5376 35.644 19.6861C35.639 24.056 33.9039 28.2461 30.818 31.3402Z" fill="white"/>
</g>
<defs>
<clipPath id="clip0_400_442">
<rect width="38" height="38" fill="white" transform="translate(0 0.705078)"/>
</clipPath>
</defs>
</svg>
