<svg width="23" height="24" viewBox="0 0 23 24" fill="none" xmlns="http://www.w3.org/2000/svg">
<g filter="url(#filter0_i_306_683)">
<ellipse cx="11.5" cy="12.3016" rx="11.5617" ry="11.5" transform="rotate(-90 11.5 12.3016)" fill="#3B505A"/>
</g>
<path d="M7.64004 7.00999L11.5 10.87L15.34 7.02999C15.4249 6.93971 15.527 6.86748 15.6405 6.81765C15.7539 6.76782 15.8762 6.7414 16 6.73999C16.2653 6.73999 16.5196 6.84535 16.7071 7.03288C16.8947 7.22042 17 7.47477 17 7.73999C17.0024 7.86259 16.9796 7.98438 16.9332 8.09787C16.8868 8.21137 16.8176 8.31418 16.73 8.39999L12.84 12.24L16.73 16.13C16.8949 16.2912 16.9915 16.5096 17 16.74C17 17.0052 16.8947 17.2596 16.7071 17.4471C16.5196 17.6346 16.2653 17.74 16 17.74C15.8726 17.7453 15.7454 17.724 15.6267 17.6775C15.5079 17.631 15.4001 17.5604 15.31 17.47L11.5 13.61L7.65004 17.46C7.56555 17.5473 7.46461 17.6169 7.35304 17.665C7.24148 17.7131 7.12151 17.7385 7.00004 17.74C6.73482 17.74 6.48047 17.6346 6.29293 17.4471C6.1054 17.2596 6.00004 17.0052 6.00004 16.74C5.99771 16.6174 6.02046 16.4956 6.06689 16.3821C6.11332 16.2686 6.18245 16.1658 6.27004 16.08L10.16 12.24L6.27004 8.34999C6.10523 8.18875 6.00858 7.9704 6.00004 7.73999C6.00004 7.47477 6.1054 7.22042 6.29293 7.03288C6.48047 6.84535 6.73482 6.73999 7.00004 6.73999C7.24004 6.74299 7.47004 6.83999 7.64004 7.00999Z" fill="white"/>
<defs>
<filter id="filter0_i_306_683" x="0" y="0.73999" width="26.0377" height="23.1233" filterUnits="userSpaceOnUse" color-interpolation-filters="sRGB">
<feFlood flood-opacity="0" result="BackgroundImageFix"/>
<feBlend mode="normal" in="SourceGraphic" in2="BackgroundImageFix" result="shape"/>
<feColorMatrix in="SourceAlpha" type="matrix" values="0 0 0 0 0 0 0 0 0 0 0 0 0 0 0 0 0 0 127 0" result="hardAlpha"/>
<feOffset dx="3.03773"/>
<feGaussianBlur stdDeviation="4.33961"/>
<feComposite in2="hardAlpha" operator="arithmetic" k2="-1" k3="1"/>
<feColorMatrix type="matrix" values="0 0 0 0 1 0 0 0 0 1 0 0 0 0 1 0 0 0 0.15 0"/>
<feBlend mode="normal" in2="shape" result="effect1_innerShadow_306_683"/>
</filter>
</defs>
</svg>
