<svg width="38" height="39" viewBox="0 0 38 39" fill="none" xmlns="http://www.w3.org/2000/svg">
<path d="M26.9166 29.2049C27.7564 29.2049 28.5619 29.5385 29.1558 30.1324C29.7496 30.7263 30.0833 31.5317 30.0833 32.3716C30.0833 33.2114 29.7496 34.0169 29.1558 34.6108C28.5619 35.2046 27.7564 35.5382 26.9166 35.5382C26.0767 35.5382 25.2713 35.2046 24.6774 34.6108C24.0835 34.0169 23.7499 33.2114 23.7499 32.3716C23.7499 30.6141 25.1591 29.2049 26.9166 29.2049ZM1.58325 3.87158H6.76075L8.24908 7.03825H31.6666C32.0865 7.03825 32.4892 7.20506 32.7862 7.502C33.0831 7.79893 33.2499 8.20166 33.2499 8.62158C33.2499 8.89075 33.1707 9.15991 33.0599 9.41325L27.3916 19.6574C26.8532 20.6232 25.8083 21.2882 24.6208 21.2882H12.8249L11.3999 23.8691L11.3524 24.0591C11.3524 24.1641 11.3941 24.2647 11.4684 24.339C11.5426 24.4132 11.6433 24.4549 11.7483 24.4549H30.0833V27.6216H11.0833C10.2434 27.6216 9.43794 27.288 8.84408 26.6941C8.25021 26.1002 7.91658 25.2948 7.91658 24.4549C7.91658 23.9007 8.05908 23.3782 8.29658 22.9349L10.4499 19.0557L4.74992 7.03825H1.58325V3.87158ZM11.0833 29.2049C11.9231 29.2049 12.7286 29.5385 13.3224 30.1324C13.9163 30.7263 14.2499 31.5317 14.2499 32.3716C14.2499 33.2114 13.9163 34.0169 13.3224 34.6108C12.7286 35.2046 11.9231 35.5382 11.0833 35.5382C10.2434 35.5382 9.43794 35.2046 8.84408 34.6108C8.25021 34.0169 7.91658 33.2114 7.91658 32.3716C7.91658 30.6141 9.32575 29.2049 11.0833 29.2049ZM25.3333 18.1216L29.7349 10.2049H9.72158L13.4583 18.1216H25.3333Z" fill="white"/>
</svg>
