<svg width="25" height="25" viewBox="0 0 25 25" fill="none" xmlns="http://www.w3.org/2000/svg">
<path d="M16.7119 2.90503C14.8285 2.90503 13.1569 3.64847 12.0244 4.92628C10.8919 3.64847 9.22035 2.90503 7.33691 2.90503C5.6965 2.90701 4.12383 3.55955 2.96388 4.7195C1.80393 5.87945 1.1514 7.45211 1.14941 9.09253C1.14941 15.8744 11.0691 21.2932 11.491 21.521C11.6549 21.6093 11.8382 21.6555 12.0244 21.6555C12.2106 21.6555 12.3939 21.6093 12.5579 21.521C12.9797 21.2932 22.8994 15.8744 22.8994 9.09253C22.8974 7.45211 22.2449 5.87945 21.0849 4.7195C19.925 3.55955 18.3523 2.90701 16.7119 2.90503ZM16.1972 16.2513C14.8915 17.3592 13.4958 18.3565 12.0244 19.2325C10.5531 18.3565 9.15729 17.3592 7.8516 16.2513C5.82004 14.5085 3.39941 11.8507 3.39941 9.09253C3.39941 8.04824 3.81426 7.04672 4.55268 6.3083C5.29111 5.56987 6.29262 5.15503 7.33691 5.15503C9.00566 5.15503 10.4025 6.03628 10.9829 7.45565C11.0673 7.66257 11.2115 7.83963 11.397 7.96428C11.5825 8.08892 11.8009 8.15548 12.0244 8.15548C12.2479 8.15548 12.4663 8.08892 12.6518 7.96428C12.8373 7.83963 12.9815 7.66257 13.066 7.45565C13.6463 6.03628 15.0432 5.15503 16.7119 5.15503C17.7562 5.15503 18.7577 5.56987 19.4961 6.3083C20.2346 7.04672 20.6494 8.04824 20.6494 9.09253C20.6494 11.8507 18.2288 14.5085 16.1972 16.2513Z" fill="#F5F5F5"/>
</svg>
