<svg width="20" height="20" viewBox="0 0 20 20" fill="none" xmlns="http://www.w3.org/2000/svg">
<g id="fluent-emoji-high-contrast:plus">
<path id="Vector" d="M11.9062 3.1625C11.9062 2.1125 11.05 1.25 9.99375 1.25C8.9375 1.25 8.075 2.1125 8.08125 3.1625V8.08125H3.1625C2.1125 8.08125 1.25 8.9375 1.25 9.99375C1.25 11.0437 2.1125 11.9062 3.1625 11.9062H8.08125V16.8188C8.08125 17.8687 8.9375 18.7312 9.99375 18.7312C11.0437 18.7312 11.9062 17.875 11.9062 16.8188V11.9062H16.8188C17.8687 11.9062 18.7312 11.05 18.7312 9.99375C18.7312 8.94375 17.875 8.08125 16.8188 8.08125H11.9062V3.1625Z" fill="#3B505A"/>
</g>
</svg>
