<svg width="32" height="32" viewBox="0 0 32 32" fill="none" xmlns="http://www.w3.org/2000/svg">
<path d="M19.638 24.6895L19.6372 24.6901C18.9394 25.2414 18.2959 25.7417 17.6698 26.1077C17.0434 26.4738 16.4974 26.6666 15.9998 26.6666C15.5025 26.6666 14.9565 26.4736 14.3299 26.1073C13.7035 25.7412 13.06 25.2412 12.3618 24.691C11.9793 24.3893 11.5877 24.0874 11.1922 23.7825C9.51889 22.4925 7.77408 21.1474 6.33529 19.5274C4.57924 17.5502 3.33317 15.2165 3.33317 12.1826C3.33317 9.18997 5.0246 6.66307 7.36029 5.59559C9.65391 4.54733 12.69 4.8574 15.5194 7.79814L15.9998 8.29739L16.4802 7.79819C19.3096 4.85812 22.3457 4.54831 24.6394 5.59674C26.9751 6.66439 28.6665 9.19131 28.6665 12.1839C28.6665 15.2172 27.4207 17.5509 25.6649 19.5279C24.2237 21.1506 22.4751 22.4975 20.7988 23.7888C20.4063 24.0911 20.0177 24.3904 19.638 24.6895Z" fill="#F3F5F9" fill-opacity="0.47" stroke="#F3F5F9" stroke-width="1.33333"/>
</svg>
