<svg width="37" height="37" viewBox="0 0 37 37" fill="none" xmlns="http://www.w3.org/2000/svg">
<path d="M27.2941 35.1269C26.8901 35.1269 26.4881 35.0029 26.1421 34.7559L18.0071 28.9219L9.8721 34.7559C9.53506 34.9984 9.13001 35.1282 8.7148 35.1268C8.2996 35.1253 7.89546 34.9927 7.5601 34.7479C7.22443 34.5046 6.97406 34.1615 6.84461 33.7676C6.71517 33.3737 6.71324 32.949 6.8391 32.5539L9.8731 22.7619L1.8111 17.0809C1.47698 16.8344 1.22885 16.489 1.10179 16.0936C0.974738 15.6983 0.975196 15.273 1.1031 14.8779C1.23202 14.4838 1.48153 14.1402 1.81637 13.8956C2.15121 13.651 2.55445 13.5179 2.9691 13.5149L12.9541 13.4999L16.1331 3.95094C16.2643 3.55756 16.5159 3.21543 16.8523 2.97299C17.1888 2.73055 17.5929 2.6001 18.0076 2.6001C18.4223 2.6001 18.8264 2.73055 19.1629 2.97299C19.4993 3.21543 19.7509 3.55756 19.8821 3.95094L23.0071 13.4999L33.0431 13.5149C33.4582 13.5173 33.8621 13.6504 34.1973 13.8953C34.5325 14.1403 34.7819 14.4846 34.9102 14.8794C35.0386 15.2743 35.0392 15.6995 34.9121 16.0947C34.785 16.4899 34.5365 16.835 34.2021 17.0809L26.1401 22.7619L29.1741 32.5539C29.3002 32.9489 29.2985 33.3736 29.1693 33.7675C29.04 34.1614 28.7897 34.5045 28.4541 34.7479C28.1177 34.9947 27.7113 35.1275 27.2941 35.1269Z" fill="#FFAC33"/>
</svg>
