<svg width="34" height="33" viewBox="0 0 34 33" fill="none" xmlns="http://www.w3.org/2000/svg">
<path d="M26.2873 32.5268C25.8833 32.5268 25.4813 32.4028 25.1353 32.1558L17.0003 26.3218L8.86527 32.1558C8.52822 32.3983 8.12317 32.5281 7.70797 32.5267C7.29276 32.5252 6.88863 32.3927 6.55327 32.1478C6.21759 31.9045 5.96722 31.5614 5.83778 31.1675C5.70833 30.7736 5.7064 30.3489 5.83227 29.9538L8.86627 20.1618L0.804266 14.4808C0.470147 14.2343 0.222011 13.8889 0.0949568 13.4935C-0.0320979 13.0982 -0.03164 12.6729 0.0962661 12.2778C0.225181 11.8837 0.474692 11.5401 0.809535 11.2955C1.14438 11.0509 1.54762 10.9178 1.96227 10.9148L11.9473 10.8998L15.1263 1.35084C15.2575 0.957465 15.5091 0.615333 15.8455 0.372895C16.1819 0.130457 16.5861 0 17.0008 0C17.4154 0 17.8196 0.130457 18.156 0.372895C18.4924 0.615333 18.7441 0.957465 18.8753 1.35084L22.0003 10.8998L32.0363 10.9148C32.4514 10.9172 32.8553 11.0503 33.1904 11.2952C33.5256 11.5402 33.7751 11.8845 33.9034 12.2793C34.0317 12.6742 34.0324 13.0994 33.9053 13.4946C33.7781 13.8898 33.5297 14.2349 33.1953 14.4808L25.1333 20.1618L28.1673 29.9538C28.2934 30.3488 28.2917 30.7735 28.1624 31.1674C28.0331 31.5613 27.7829 31.9044 27.4473 32.1478C27.1109 32.3946 26.7044 32.5274 26.2873 32.5268Z" fill="#D9D9D9"/>
</svg>
